<?xml version="1.0" encoding="UTF-8" standalone="no"?>
<svg
   id="Layer_1"
   data-name="Layer 1"
   viewBox="0 0 1851.37 1851.37"
   version="1.1"
   sodipodi:docname="applicazione.svg"
   inkscape:version="1.3.2 (091e20e, 2023-11-25, custom)"
   xml:space="preserve"
   xmlns:inkscape="http://www.inkscape.org/namespaces/inkscape"
   xmlns:sodipodi="http://sodipodi.sourceforge.net/DTD/sodipodi-0.dtd"
   xmlns="http://www.w3.org/2000/svg"
   xmlns:svg="http://www.w3.org/2000/svg"
   xmlns:rdf="http://www.w3.org/1999/02/22-rdf-syntax-ns#"
   xmlns:cc="http://creativecommons.org/ns#"
   xmlns:dc="http://purl.org/dc/elements/1.1/"><sodipodi:namedview
     id="namedview6"
     pagecolor="#ffffff"
     bordercolor="#000000"
     borderopacity="0.25"
     inkscape:showpageshadow="2"
     inkscape:pageopacity="0.0"
     inkscape:pagecheckerboard="0"
     inkscape:deskcolor="#d1d1d1"
     inkscape:zoom="0.4422831"
     inkscape:cx="1015.1869"
     inkscape:cy="887.44064"
     inkscape:window-width="1920"
     inkscape:window-height="1057"
     inkscape:window-x="-8"
     inkscape:window-y="-8"
     inkscape:window-maximized="1"
     inkscape:current-layer="Layer_1" /><defs
     id="defs1"><style
       id="style1">.cls-1,.cls-4{fill:#fff;}.cls-2,.cls-5{fill:none;}.cls-2,.cls-4{stroke:#666;stroke-width:18.78px;}.cls-2,.cls-4,.cls-5{stroke-miterlimit:10;}.cls-3{fill:#666;}.cls-5{stroke:#b3b3b3;stroke-width:37.57px;}</style></defs><title
     id="title1">gesture</title><circle
     class="cls-5"
     cx="925.69"
     cy="925.69"
     r="906.9"
     id="circle6"
     style="fill:#ffffff;fill-opacity:1;stroke-width:37;stroke-dasharray:none" /><path
     class="cls-2"
     d="m 453.43241,1128.7957 h -23.15049 c -4.25526,0 -7.71781,-3.4728 -7.71781,-7.7407 v -23.2163 c 0,-4.2678 3.46255,-7.7407 7.71781,-7.7407 h 23.15049 c 4.25526,0 7.71782,3.4729 7.71782,7.7407 v 23.2163 c 0,4.2679 -3.46256,7.7407 -7.71782,7.7407 z m -23.15049,-31.7816 c -0.45381,0 -0.82217,0.3697 -0.82217,0.8246 v 23.2163 c 0,0.4551 0.36834,0.8246 0.82217,0.8246 h 23.15049 c 0.45382,0 0.82218,-0.3692 0.82218,-0.8246 v -23.2163 c 0,-0.4551 -0.36835,-0.8246 -0.82218,-0.8246 z"
     id="path5-5"
     style="fill:#777777;fill-opacity:1;stroke-width:2;stroke-dasharray:none;stroke:#5f5f5f;stroke-opacity:1" /><path
     class="cls-2"
     d="m 469.27471,1144.688 h -23.1505 c -4.25525,0 -7.71781,-3.4729 -7.71781,-7.7408 v -23.2191 c 0,-4.2679 3.46256,-7.7408 7.71781,-7.7408 h 23.1505 c 4.25525,0 7.71781,3.4729 7.71781,7.7408 v 23.2191 c 0,4.2679 -3.46256,7.7408 -7.71781,7.7408 z m -23.1505,-31.7845 c -0.45381,0 -0.82217,0.3692 -0.82217,0.8246 v 23.2191 c 0,0.4552 0.36835,0.8246 0.82217,0.8246 h 23.1505 c 0.45381,0 0.82217,-0.3692 0.82217,-0.8246 v -23.2191 c 0,-0.4552 -0.36835,-0.8246 -0.82217,-0.8246 z"
     id="path6-4"
     style="fill:#777777;fill-opacity:1;stroke-width:2;stroke-dasharray:none;stroke:#5f5f5f;stroke-opacity:1" /><path
     class="cls-2"
     d="m 449.77537,790.22897 c -1.90662,0 -3.44782,-1.54874 -3.44782,-3.45807 v -47.41371 c 0,-1.90932 1.5412,-3.45807 3.44782,-3.45807 1.90661,0 3.44782,1.54875 3.44782,3.45807 v 47.41371 c 0,1.90933 -1.54121,3.45807 -3.44782,3.45807 z"
     id="path7"
     style="fill:#b3b3b3;fill-opacity:1;stroke-width:2;stroke-dasharray:none" /><path
     class="cls-2"
     d="m 473.41799,766.53095 v 0 l -47.2764,-0.004 c -1.90662,0 -3.44782,-1.5487 -3.44782,-3.45802 0,-1.90933 1.54415,-3.45807 3.44782,-3.45807 v 0 l 47.2764,0.004 c 1.90661,0 3.44782,1.54874 3.44782,3.45807 0,1.90928 -1.54416,3.45802 -3.44782,3.45802 z"
     id="path8"
     style="fill:#777777;fill-opacity:1;stroke-width:2;stroke-dasharray:none;stroke:#5f5f5f;stroke-opacity:1" /><path
     class="cls-2"
     d="m 473.41799,876.22502 h -6.89565 c -1.90661,0 -3.44781,-1.5487 -3.44781,-3.45802 0,-1.90932 1.5412,-3.45807 3.44781,-3.45807 h 3.48908 c 0.25047,-1.66104 1.67971,-2.93489 3.40657,-2.93489 1.90661,0 3.44782,1.5487 3.44782,3.45803 v 2.93493 c 0,1.90932 -1.54121,3.45802 -3.44782,3.45802 z m -20.68693,0 h -6.89564 c -1.90662,0 -3.44782,-1.5487 -3.44782,-3.45802 0,-1.90932 1.5412,-3.45807 3.44782,-3.45807 h 6.89564 c 1.90662,0 3.44782,1.54875 3.44782,3.45807 0,1.90932 -1.5412,3.45802 -3.44782,3.45802 z m -20.68692,0 h -5.9055 c -1.90661,0 -3.44782,-1.5487 -3.44782,-3.45802 v -0.99308 c 0,-1.90932 1.54121,-3.45806 3.44782,-3.45806 0.943,0 1.79464,0.37817 2.41642,0.99307 h 3.48908 c 1.90661,0 3.44782,1.54875 3.44782,3.45807 0,1.90932 -1.54121,3.45802 -3.44782,3.45802 z m -5.90255,-14.82525 c -1.90662,0 -3.44782,-1.54874 -3.44782,-3.45807 v -6.91608 c 0,-1.90933 1.5412,-3.45807 3.44782,-3.45807 1.90661,0 3.44782,1.54874 3.44782,3.45807 v 6.91608 c 0,1.90933 -1.54121,3.45807 -3.44782,3.45807 z m 47.2764,-1.93888 c -1.90662,0 -3.44783,-1.54874 -3.44783,-3.45806 v -6.91609 c 0,-1.90932 1.54121,-3.45807 3.44783,-3.45807 1.90661,0 3.44782,1.54875 3.44782,3.45807 v 6.91609 c 0,1.90932 -1.54121,3.45806 -3.44782,3.45806 z m -47.2764,-18.80649 c -1.90662,0 -3.44782,-1.5487 -3.44782,-3.45802 v -6.91614 c 0,-1.90928 1.5412,-3.45802 3.44782,-3.45802 1.90661,0 3.44782,1.54874 3.44782,3.45802 v 6.91614 c 0,1.90932 -1.54121,3.45802 -3.44782,3.45802 z m 47.2764,-1.94182 c -1.90662,0 -3.44783,-1.54874 -3.44783,-3.45806 v -6.91609 c 0,-1.90932 1.54121,-3.45807 3.44783,-3.45807 1.90661,0 3.44782,1.54875 3.44782,3.45807 v 6.91609 c 0,1.90932 -1.54121,3.45806 -3.44782,3.45806 z m -10.81496,-9.89829 h -6.89565 c -1.90661,0 -3.44781,-1.54874 -3.44781,-3.45807 0,-1.90932 1.5412,-3.45802 3.44781,-3.45802 h 6.89565 c 1.90661,0 3.44782,1.5487 3.44782,3.45802 0,1.90933 -1.54121,3.45807 -3.44782,3.45807 z m -20.68693,0 h -6.89564 c -1.90661,0 -3.44782,-1.54874 -3.44782,-3.45807 0,-1.90932 1.54121,-3.45802 3.44782,-3.45802 h 6.89564 c 1.90662,0 3.44782,1.5487 3.44782,3.45802 0,1.90933 -1.5412,3.45807 -3.44782,3.45807 z"
     id="path9"
     style="fill:#777777;fill-opacity:1;stroke-width:2;stroke-dasharray:none;stroke:#5f5f5f;stroke-opacity:1" /><path
     class="cls-2"
     d="m 458.16506,1057.4032 c -1.44396,0 -2.74057,-0.9044 -3.23859,-2.2699 l -8.41033,-23.0477 -22.98252,-8.4383 c -1.37618,-0.5054 -2.28381,-1.8295 -2.26318,-3.2984 0.0238,-1.4719 0.96951,-2.7665 2.36043,-3.2305 l 50.11716,-16.7228 c 1.23768,-0.4199 2.60208,-0.092 3.52444,0.8365 0.92237,0.925 1.24652,2.2935 0.83396,3.5349 l -16.6733,50.2688 c -0.46561,1.395 -1.75338,2.3438 -3.22092,2.3674 h -0.0501 z m -22.99136,-36.8475 15.21461,5.5862 c 0.95184,0.3488 1.70329,1.1024 2.05396,2.0571 l 5.56956,15.2567 11.3837,-34.3233 -34.22183,11.4204 z"
     id="path10"
     style="fill:#777777;fill-opacity:1;stroke-width:2;stroke-dasharray:none;stroke:#5f5f5f;stroke-opacity:1" /><path
     class="cls-2"
     d="m 446.58098,967.8516 c -0.85165,-0.8542 -1.28189,-1.9094 -1.28189,-3.1596 v -39.80893 h -13.18128 c -1.18169,0 -2.16594,-0.39605 -2.95569,-1.18522 -0.78387,-0.78913 -1.18169,-1.77629 -1.18169,-2.96151 0,-1.18518 0.39781,-2.18712 1.18169,-3.01176 0.78975,-0.82162 1.774,-1.23245 2.95569,-1.23245 h 35.22965 c 1.17874,0 2.17773,0.41096 2.9999,1.23245 0.82217,0.82464 1.22884,1.82658 1.22884,3.01176 0,1.18522 -0.40962,2.17238 -1.22884,2.96151 -0.82217,0.78917 -1.82116,1.18522 -2.9999,1.18522 H 454.26048 V 964.692 c 0,1.2502 -0.44497,2.3024 -1.32903,3.1596 -0.88406,0.8541 -1.95377,1.2827 -3.20029,1.2827 -1.24652,0 -2.29854,-0.4286 -3.14724,-1.2827 z"
     id="path11"
     style="fill:#777777;fill-opacity:1;stroke-width:2;stroke-dasharray:none;stroke:#5f5f5f;stroke-opacity:1" /><rect
     style="fill:none;stroke:#8e8e8e;stroke-width:20;stroke-linecap:butt;stroke-linejoin:miter;stroke-miterlimit:0;stroke-dasharray:none;stroke-dashoffset:0;stroke-opacity:1;paint-order:normal"
     id="rect221"
     width="1218.6167"
     height="924.12689"
     x="316.40955"
     y="342.37308"
     ry="0"
     rx="0" /><rect
     style="fill:none;stroke:#8e8e8e;stroke-width:20;stroke-linecap:butt;stroke-linejoin:miter;stroke-miterlimit:0;stroke-dasharray:none;stroke-dashoffset:0;stroke-opacity:1;paint-order:normal"
     id="rect222"
     width="1218.6167"
     height="200.15651"
     x="316.34372"
     y="342.30704"
     ry="0"
     rx="0" /><ellipse
     style="fill:none;stroke:#b3b3b3;stroke-width:10;stroke-linecap:butt;stroke-linejoin:miter;stroke-miterlimit:0;stroke-dasharray:none;stroke-dashoffset:0;stroke-opacity:1;paint-order:normal"
     id="path222"
     cx="424.85193"
     cy="465.74796"
     rx="25.476307"
     ry="25.551895" /><ellipse
     style="fill:none;stroke:#b3b3b3;stroke-width:10;stroke-linecap:butt;stroke-linejoin:miter;stroke-miterlimit:0;stroke-dasharray:none;stroke-dashoffset:0;stroke-opacity:1;paint-order:normal"
     id="circle222"
     cx="519.94617"
     cy="465.74796"
     rx="25.476307"
     ry="25.551895" /><ellipse
     style="fill:none;stroke:#b3b3b3;stroke-width:10;stroke-linecap:butt;stroke-linejoin:miter;stroke-miterlimit:0;stroke-dasharray:none;stroke-dashoffset:0;stroke-opacity:1;paint-order:normal"
     id="circle223"
     cx="616.16107"
     cy="465.74796"
     rx="25.476307"
     ry="25.551895" /><path
     class="cls-1"
     d="M 1453.2355,469.62633 H 970.25775 c -2.72291,0 -4.92716,-2.21373 -4.92716,-4.94174 0,-2.72805 2.20425,-4.94178 4.92716,-4.94178 h 482.97775 c 2.7229,0 4.9272,2.21373 4.9272,4.94178 0,2.72801 -2.2043,4.94174 -4.9272,4.94174 z"
     id="path223"
     style="stroke-width:0.999994" /><rect
     style="fill:none;stroke:#8e8e8e;stroke-width:10;stroke-linecap:butt;stroke-linejoin:miter;stroke-miterlimit:0;stroke-dasharray:none;stroke-dashoffset:0;stroke-opacity:1;paint-order:normal"
     id="rect223"
     width="131.62759"
     height="566.40033"
     x="383.06192"
     y="610.79913"
     ry="0" /><rect
     style="fill:none;stroke:#8e8e8e;stroke-width:10;stroke-linecap:butt;stroke-linejoin:miter;stroke-miterlimit:0;stroke-dasharray:none;stroke-dashoffset:0;stroke-opacity:1;paint-order:normal"
     id="rect224"
     width="131.62759"
     height="80.914337"
     x="383.06192"
     y="610.79913" /><path
     class="cls-3"
     d="m 781.69016,845.19847 c -0.1121,0 -0.2267,0 -0.3418,-0.021 -1.2023,-0.1448 -2.1836,-1.0374 -2.443,-2.2286 l -15.6831,-71.951 c -0.2267,-1.0552 0.1563,-2.1517 0.9931,-2.8315 0.8399,-0.6798 1.995,-0.8276 2.9704,-0.3782 l 66.8347,30.4841 c 1.1021,0.5054 1.7681,1.6522 1.6591,2.864 -0.1121,1.2118 -0.9754,2.2196 -2.1483,2.5122 l -33.8977,8.4856 -15.3855,31.4652 c -0.4803,0.9872 -1.4823,1.599 -2.5578,1.599 z m -11.6872,-69.8527 12.7275,58.3761 12.3708,-25.297 c 0.3711,-0.7566 1.0521,-1.3123 1.8683,-1.5162 l 27.2585,-6.8245 z"
     id="path230"
     style="stroke-width:5;stroke-dasharray:none;stroke:#5f5f5f;stroke-opacity:1" /><g
     id="g2"
     transform="matrix(0.5193653,0,0,0.5193653,670.58489,831.2563)"
     style="stroke-width:1.92543"><path
       class="cls-1"
       d="m 1693.38,1338.94 c -25,-37.57 -87.66,-263 -93.92,-275.5 -6.26,-12.5 -28.18,-147.14 -31.31,-175.32 -3.13,-28.18 -25,-131.49 -87.66,-300.54 -62.66,-169.05 -169,-175.32 -187.84,-181.58 -18.84,-6.26 -56.35,-62.61 -87.65,-81.4 -31.3,-18.79 -137.75,-12.52 -156.54,-12.52 -18.79,0 -81.39,-62.61 -112.7,-75.13 -31.31,-12.52 -87.66,-12.53 -125.23,0 -37.57,12.53 -59.48,72 -81.39,81.39 -21.91,9.39 -147.15,-9.39 -181.58,0 -34.43,9.39 -131.49,87.66 -137.75,150.27 -6.26,62.61 15.65,140.88 15.65,140.88 l -37.57,175.32 c 0,0 -40.69,-65.74 -53.2,-78.27 -12.51,-12.53 -43.83,-12.52 -68.87,6.27 C 240.78,731.6 90.5,881.86 84.24,931.95 c -6.26,50.09 50.09,100.18 93.92,156.53 43.83,56.35 56.35,169.06 162.79,219.15 106.44,50.09 425.74,200.36 482.11,237.93 56.37,37.57 93.91,112.7 93.91,112.7"
       id="path1"
       style="fill:#ffffff;stroke-width:1.92543" /><path
       class="cls-2"
       d="m 916.97,1658.26 c 0,0 -37.56,-75.13 -93.91,-112.7 C 766.71,1507.99 447.38,1357.69 340.93,1307.63 234.48,1257.57 221.93,1144.84 178.14,1088.48 134.35,1032.12 77.96,982.04 84.22,931.95 90.48,881.86 240.75,731.59 265.8,712.81 c 25.05,-18.78 56.35,-18.79 68.87,-6.27 12.52,12.52 53.22,78.27 53.22,78.27"
       id="path2"
       style="fill:none;stroke:#666666;stroke-width:36.1595px;stroke-miterlimit:10" /><path
       class="cls-2"
       d="m 425.46,609.49 c 0,0 -21.91,-78.26 -15.65,-140.88 6.26,-62.62 103.31,-140.92 137.75,-150.27 34.44,-9.35 159.66,9.39 181.58,0 21.92,-9.39 43.82,-68.87 81.39,-81.39 37.57,-12.52 93.92,-12.53 125.23,0 31.31,12.53 93.92,75.13 112.7,75.13 18.78,0 125.23,-6.26 156.54,12.52 31.31,18.78 68.87,75.14 87.65,81.4 18.78,6.26 125.23,12.52 187.84,181.58 62.61,169.06 84.53,272.37 87.66,300.54 3.13,28.17 25,162.8 31.31,175.32 6.31,12.52 68.87,237.93 93.92,275.5"
       id="path3"
       style="fill:none;stroke:#666666;stroke-width:36.1595px;stroke-miterlimit:10" /><path
       class="cls-2"
       d="m 250.15,834.9 c 0,0 81.39,6.26 125.22,50.09 43.83,43.83 50.09,43.83 50.09,56.35 0,12.52 -43.83,125.23 -43.83,125.23"
       id="path4"
       style="fill:none;stroke:#666666;stroke-width:36.1595px;stroke-miterlimit:10" /><path
       class="cls-3"
       d="m 378.5,888.12 c 0,0 0,-200.36 18.79,-237.93 18.79,-37.57 56.4,-131.5 194.1,-156.5 137.7,-25 613.61,-18.78 707.52,25 93.91,43.78 137.78,100.2 137.78,150.29 0,50.09 -50.09,93.92 -75.13,100.18 -25.04,6.26 -594.83,-18.79 -701.27,-6.26 -106.44,12.53 -144,43.83 -169.05,75.13 -25.05,31.3 -18.79,62.61 -25,75.14 -6.21,12.53 -18.78,31.3 -31.31,31.3 -12.53,0 -56.43,-56.35 -56.43,-56.35 z"
       id="path5"
       style="fill:#666666;stroke-width:1.92543" /><path
       class="cls-4"
       d="M 425.46,609.49"
       id="path6"
       style="fill:#ffffff;stroke:#666666;stroke-width:36.1595px;stroke-miterlimit:10" /></g><metadata
     id="metadata1"><rdf:RDF><cc:Work
         rdf:about=""><dc:title>gesture</dc:title></cc:Work></rdf:RDF></metadata></svg>
