<?xml version="1.0" encoding="UTF-8" standalone="no"?>
<svg
   id="Layer_1"
   data-name="Layer 1"
   viewBox="0 0 1851.37 1851.37"
   version="1.1"
   sodipodi:docname="gesture.svg"
   inkscape:version="1.3.2 (091e20e, 2023-11-25)"
   xmlns:inkscape="http://www.inkscape.org/namespaces/inkscape"
   xmlns:sodipodi="http://sodipodi.sourceforge.net/DTD/sodipodi-0.dtd"
   xmlns="http://www.w3.org/2000/svg"
   xmlns:svg="http://www.w3.org/2000/svg">
  <sodipodi:namedview
     id="namedview6"
     pagecolor="#ffffff"
     bordercolor="#000000"
     borderopacity="0.25"
     inkscape:showpageshadow="2"
     inkscape:pageopacity="0.0"
     inkscape:pagecheckerboard="0"
     inkscape:deskcolor="#d1d1d1"
     inkscape:zoom="0.31274138"
     inkscape:cx="925.685"
     inkscape:cy="924.08623"
     inkscape:window-width="1872"
     inkscape:window-height="1027"
     inkscape:window-x="51"
     inkscape:window-y="25"
     inkscape:window-maximized="1"
     inkscape:current-layer="Layer_1" />
  <defs
     id="defs1">
    <style
       id="style1">.cls-1,.cls-4{fill:#fff;}.cls-2,.cls-5{fill:none;}.cls-2,.cls-4{stroke:#666;stroke-width:18.78px;}.cls-2,.cls-4,.cls-5{stroke-miterlimit:10;}.cls-3{fill:#666;}.cls-5{stroke:#b3b3b3;stroke-width:37.57px;}</style>
  </defs>
  <title
     id="title1">gesture</title>
  <circle
     class="cls-5"
     cx="925.69"
     cy="925.69"
     r="906.9"
     id="circle6"
     style="fill:#ffffff;fill-opacity:1" />
  <path
     class="cls-1"
     d="m 1693.38,1338.94 c -25,-37.57 -87.66,-263 -93.92,-275.5 -6.26,-12.5 -28.18,-147.14 -31.31,-175.32 -3.13,-28.18 -25,-131.49 -87.66,-300.54 -62.66,-169.05 -169,-175.32 -187.84,-181.58 -18.84,-6.26 -56.35,-62.61 -87.65,-81.4 -31.3,-18.79 -137.75,-12.52 -156.54,-12.52 -18.79,0 -81.39,-62.61 -112.7,-75.13 -31.31,-12.52 -87.66,-12.53 -125.23,0 -37.57,12.53 -59.48,72 -81.39,81.39 -21.91,9.39 -147.15,-9.39 -181.58,0 -34.43,9.39 -131.49,87.66 -137.75,150.27 -6.26,62.61 15.65,140.88 15.65,140.88 l -37.57,175.32 c 0,0 -40.69,-65.74 -53.2,-78.27 -12.51,-12.53 -43.83,-12.52 -68.87,6.27 C 240.78,731.6 90.5,881.86 84.24,931.95 c -6.26,50.09 50.09,100.18 93.92,156.53 43.83,56.35 56.35,169.06 162.79,219.15 106.44,50.09 425.74,200.36 482.11,237.93 56.37,37.57 93.91,112.7 93.91,112.7"
     id="path1" />
  <path
     class="cls-2"
     d="m 916.97,1658.26 c 0,0 -37.56,-75.13 -93.91,-112.7 C 766.71,1507.99 447.38,1357.69 340.93,1307.63 234.48,1257.57 221.93,1144.84 178.14,1088.48 134.35,1032.12 77.96,982.04 84.22,931.95 90.48,881.86 240.75,731.59 265.8,712.81 c 25.05,-18.78 56.35,-18.79 68.87,-6.27 12.52,12.52 53.22,78.27 53.22,78.27"
     id="path2" />
  <path
     class="cls-2"
     d="m 425.46,609.49 c 0,0 -21.91,-78.26 -15.65,-140.88 6.26,-62.62 103.31,-140.92 137.75,-150.27 34.44,-9.35 159.66,9.39 181.58,0 21.92,-9.39 43.82,-68.87 81.39,-81.39 37.57,-12.52 93.92,-12.53 125.23,0 31.31,12.53 93.92,75.13 112.7,75.13 18.78,0 125.23,-6.26 156.54,12.52 31.31,18.78 68.87,75.14 87.65,81.4 18.78,6.26 125.23,12.52 187.84,181.58 62.61,169.06 84.53,272.37 87.66,300.54 3.13,28.17 25,162.8 31.31,175.32 6.31,12.52 68.87,237.93 93.92,275.5"
     id="path3" />
  <path
     class="cls-2"
     d="m 250.15,834.9 c 0,0 81.39,6.26 125.22,50.09 43.83,43.83 50.09,43.83 50.09,56.35 0,12.52 -43.83,125.23 -43.83,125.23"
     id="path4" />
  <path
     class="cls-3"
     d="m 378.5,888.12 c 0,0 0,-200.36 18.79,-237.93 18.79,-37.57 56.4,-131.5 194.1,-156.5 137.7,-25 613.61,-18.78 707.52,25 93.91,43.78 137.78,100.2 137.78,150.29 0,50.09 -50.09,93.92 -75.13,100.18 -25.04,6.26 -594.83,-18.79 -701.27,-6.26 -106.44,12.53 -144,43.83 -169.05,75.13 -25.05,31.3 -18.79,62.61 -25,75.14 -6.21,12.53 -18.78,31.3 -31.31,31.3 -12.53,0 -56.43,-56.35 -56.43,-56.35 z"
     id="path5" />
  <path
     class="cls-4"
     d="M 425.46,609.49"
     id="path6" />
</svg>
