<?xml version="1.0" encoding="UTF-8" standalone="no"?>
<svg
   id="Layer_1"
   data-name="Layer 1"
   viewBox="0 0 60 60"
   version="1.1"
   sodipodi:docname="tskin-hand.svg"
   width="60"
   height="60"
   inkscape:version="1.3.2 (091e20e, 2023-11-25)"
   xmlns:inkscape="http://www.inkscape.org/namespaces/inkscape"
   xmlns:sodipodi="http://sodipodi.sourceforge.net/DTD/sodipodi-0.dtd"
   xmlns="http://www.w3.org/2000/svg"
   xmlns:svg="http://www.w3.org/2000/svg"
   xmlns:rdf="http://www.w3.org/1999/02/22-rdf-syntax-ns#"
   xmlns:cc="http://creativecommons.org/ns#"
   xmlns:dc="http://purl.org/dc/elements/1.1/">
  <sodipodi:namedview
     id="namedview6"
     pagecolor="#ffffff"
     bordercolor="#000000"
     borderopacity="0.25"
     inkscape:showpageshadow="2"
     inkscape:pageopacity="0.0"
     inkscape:pagecheckerboard="0"
     inkscape:deskcolor="#d1d1d1"
     inkscape:zoom="5.2860087"
     inkscape:cx="43.700269"
     inkscape:cy="42.943554"
     inkscape:window-width="1872"
     inkscape:window-height="1027"
     inkscape:window-x="51"
     inkscape:window-y="25"
     inkscape:window-maximized="1"
     inkscape:current-layer="g6" />
  <defs
     id="defs1">
    <style
       id="style1">.cls-1,.cls-4{fill:#fff;}.cls-2,.cls-5{fill:none;}.cls-2,.cls-4{stroke:#666;stroke-width:18.78px;}.cls-2,.cls-4,.cls-5{stroke-miterlimit:10;}.cls-3{fill:#666;}.cls-5{stroke:#b3b3b3;stroke-width:37.57px;}</style>
  </defs>
  <title
     id="title1">gesture</title>
  <g
     id="g6"
     transform="translate(-0.00149527,3.3499029)">
    <path
       class="cls-2"
       d="m 31.07295,53.170162 c 0,0 -1.388615,-2.7776 -3.471908,-4.16659 -2.083293,-1.38898 -13.889113,-6.94566 -17.8246334,-8.79641 -3.93552,-1.85075 -4.3995,-6.01844 -6.018443,-8.10211 -1.618942,-2.08366 -3.70371403,-3.93515 -3.47227803,-5.787 0.231436,-1.85186 5.78700703,-7.40743 6.71312103,-8.10174 0.926113,-0.69431 2.083292,-0.69468 2.546164,-0.23181 0.4628724,0.46288 3.1145994,4.40441 3.1145994,4.40441 l 0.521724,-6.2299 c 0,0 -1.089788,-4.65582 -0.858352,-6.9709204 0.231436,-2.3151 3.819432,-5.2099 5.092699,-5.55557 1.273267,-0.34568 5.902726,0.34715 6.713121,0 0.810395,-0.34715 1.620051,-2.54617 3.009037,-3.00904004 1.388985,-0.46287 3.472278,-0.46324 4.629827,0 1.157551,0.46324004 3.472279,2.77760004 4.166587,2.77760004 0.694308,0 4.629827,-0.23143 5.78738,0.46288 1.157546,0.6943 2.546158,2.77797 3.24047,3.0094 0.694307,0.23144 4.629827,0.46287 6.944555,6.7131204 2.314728,6.25025 3.125122,10.06968 3.240841,11.11114 0.115722,1.04147 0.924267,6.01882 1.157549,6.48169 0.233285,0.46287 2.546165,8.79642 3.472278,10.1854"
       id="path2"
       sodipodi:nodetypes="cssssssccsssssssssssc"
       style="stroke-width:0.5;stroke-dasharray:none" />
    <path
       class="cls-2"
       d="m 6.4202186,22.730052 c 0,0 3.009036,0.23144 4.6294574,1.85186 1.620422,1.62042 1.851857,1.62042 1.851857,2.08329 0,0.46287 -1.620421,4.62983 -1.620421,4.62983"
       id="path4"
       style="stroke-width:0.5;stroke-dasharray:none" />
    <path
       class="cls-3"
       d="m 11.165394,24.697622 c 0,0 0,-7.40742 0.694678,-8.79641 0.694677,-1.38898 2.085141,-4.86163 7.175992,-5.7859 5.090851,-0.9242604 22.685531,-0.6943004 26.157434,0.92427 3.47191,1.61857 5.093811,3.70445 5.093811,5.55631 0,1.85186 -1.851857,3.47228 -2.777602,3.70371 -0.925742,0.23144 -21.991219,-0.69467 -25.926369,-0.23143 -3.93515,0.46324 -5.323765,1.62042 -6.249879,2.7776 -0.926113,1.15718 -0.694677,2.31473 -0.924264,2.77797 -0.229588,0.46324 -0.694308,1.15718 -1.15755,1.15718 -0.463241,0 -2.086251,-2.0833 -2.086251,-2.0833 z"
       id="path5"
       style="fill:#666666;fill-opacity:0.992032;stroke:#666666;stroke-width:0.0369708;stroke-opacity:1" />
  </g>
  <metadata
     id="metadata6">
    <rdf:RDF>
      <cc:Work
         rdf:about="">
        <dc:title>gesture</dc:title>
      </cc:Work>
    </rdf:RDF>
  </metadata>
</svg>
